<svg fill="none" xmlns="http://www.w3.org/2000/svg" viewBox="0 0 336 422">
  <g clip-path="url(#clip0_49_102)">
    <path d="M169.52 83.2a83.14 83.14 0 0 1-14.03 46.27A83.51 83.51 0 0 1 27.17 142.1 83.2 83.2 0 0 1 9.1 51.37 83.27 83.27 0 0 1 39.83 14a83.49 83.49 0 0 1 123.35 37.35 83.09 83.09 0 0 1 6.34 31.84Z" fill="url(#paint0_linear_49_102)"/>
    <path d="M165.93 83.2a79.56 79.56 0 0 1-13.43 44.27 79.93 79.93 0 0 1-122.79 12.1 79.62 79.62 0 0 1-17.29-86.83A79.69 79.69 0 0 1 41.82 17a79.9 79.9 0 0 1 100.75 9.92 79.54 79.54 0 0 1 23.36 56.3Z" fill="url(#paint1_linear_49_102)"/>
    <path d="M86.18 139.49a56.33 56.33 0 0 0 56.38-56.29 56.33 56.33 0 0 0-56.38-56.28A56.33 56.33 0 0 0 29.8 83.2a56.33 56.33 0 0 0 56.38 56.29Z" fill="#717375"/>
    <path d="M141.25 83.2a54.78 54.78 0 0 1-33.92 50.67A55.03 55.03 0 0 1 47.45 122a54.82 54.82 0 0 1-11.9-59.78 55.01 55.01 0 0 1 101.52 0 54.77 54.77 0 0 1 4.18 21Z" fill="url(#paint2_linear_49_102)"/>
    <path d="M142.35 74.8a8.44 8.44 0 0 0 7.9 6.04h16.9a8.46 8.46 0 0 0 8.46-8.44V34.68c0-1.19-.24-2.37-.72-3.46a8.65 8.65 0 0 0-8.45-6.28H14.29a8.67 8.67 0 0 0-8.25 8.81v365c.02 1.15.27 2.28.72 3.34a8.44 8.44 0 0 0 8.03 6.11h152.66a8.46 8.46 0 0 0 8.45-8.44V137.04c0-1.18-.24-2.34-.72-3.42a8.44 8.44 0 0 0-8.2-6.24h-16.9a8.46 8.46 0 0 0-8.24 8.22v4.22a8.64 8.64 0 0 1-8.7 8.44H48.6a8.47 8.47 0 0 1-7.98-4.8 8.88 8.88 0 0 1-.38-2.37V68.43a8.68 8.68 0 0 1 8.7-8.69h84.53a8.72 8.72 0 0 1 7.95 5.24c.23.76.36 1.56.38 2.36v4.22c-.04 1.1.15 2.2.55 3.25Z" fill="#868683" style="mix-blend-mode:multiply"/>
    <path d="M142 136.7v4.22a8.65 8.65 0 0 1-8.66 8.44H48.82a8.67 8.67 0 0 1-8.71-8.44V68.43a8.68 8.68 0 0 1 8.7-8.69h84.53a8.68 8.68 0 0 1 8.67 8.7v4.21a8.43 8.43 0 0 0 8.24 8.23h16.9a8.46 8.46 0 0 0 8.46-8.44V34.68a8.65 8.65 0 0 0-8.67-8.69H14.8a8.67 8.67 0 0 0-8.45 8.7V399.8a8.43 8.43 0 0 0 8.45 8.44h152.66a8.46 8.46 0 0 0 8.45-8.44V137.04a8.43 8.43 0 0 0-8.45-8.44h-16.9a8.46 8.46 0 0 0-8.54 8.1Z" fill="#1E1E1F"/>
    <path d="M141.67 135.6v4.22a8.64 8.64 0 0 1-8.7 8.44H48.43a8.67 8.67 0 0 1-8.71-8.44V67.51a8.64 8.64 0 0 1 8.7-8.65h84.53a8.68 8.68 0 0 1 8.71 8.65v4.22a8.43 8.43 0 0 0 8.24 8.22h16.9a8.46 8.46 0 0 0 8.46-8.44V33.75a8.64 8.64 0 0 0-8.7-8.43H14.4a8.67 8.67 0 0 0-8.37 8.43v365a8.43 8.43 0 0 0 8.46 8.44H167.1a8.46 8.46 0 0 0 8.46-8.44v-262.8a8.43 8.43 0 0 0-8.46-8.45h-16.9a8.46 8.46 0 0 0-8.54 8.1Z" fill="#FAF8F4"/>
    <g opacity=".5" fill="#B3B3B6">
      <path opacity=".5" d="M166.77 24.94H14.62a8.68 8.68 0 0 0-8.58 8.81v.55a8.68 8.68 0 0 1 8.71-8.98H166.9a8.71 8.71 0 0 1 8.7 8.69v-.26a8.65 8.65 0 0 0-8.83-8.81ZM48.56 148.98h84.53a8.72 8.72 0 0 0 8.7-8.7v-.5a8.64 8.64 0 0 1-8.7 8.44H48.56a8.67 8.67 0 0 1-8.7-8.44v.5a8.68 8.68 0 0 0 8.7 8.7ZM166.9 127.38H150a8.47 8.47 0 0 0-8.25 8.22v.55a8.43 8.43 0 0 1 8.25-8.44h16.9a8.46 8.46 0 0 1 8.45 8.44v-.55a8.43 8.43 0 0 0-8.45-8.22Z"/>
    </g>
    <path d="M300.29 103.12H83.34A22.93 22.93 0 0 1 62.2 88.93a22.83 22.83 0 0 1-1.72-8.77A22.85 22.85 0 0 1 83.35 57.3h216.94a22.93 22.93 0 0 1 22.9 22.86 22.84 22.84 0 0 1-14.12 21.2 22.95 22.95 0 0 1-8.78 1.76Z" fill="url(#paint3_linear_49_102)"/>
    <path d="M51.87 300.1v-.8c.75 0 1.31-.1 1.68-.32.43-.27.72-.59.88-.96a3 3 0 0 0 .32-1.36c.06-.53.08-1.07.08-1.6v-7.84H33l27.04-38.32v34.32h4.88v4h-4.88v7.84c0 1.07.2 2.05.56 2.96.43.85 1.28 1.28 2.56 1.28v.8H51.87Zm2.96-39.28a1014 1014 0 0 1-8 11.2l-7.92 11.2h15.92v-22.4Zm14.48 14.48c0-4.1.5-7.73 1.52-10.88a24.77 24.77 0 0 1 4.16-7.84 17.34 17.34 0 0 1 5.76-4.8 14.43 14.43 0 0 1 6.64-1.68c2.24 0 4.45.56 6.64 1.68a16.35 16.35 0 0 1 5.76 4.8c1.7 2.08 3.06 4.7 4.08 7.84a33.85 33.85 0 0 1 1.6 10.88c0 4.16-.53 7.84-1.6 11.04a25.65 25.65 0 0 1-4.08 8 17.2 17.2 0 0 1-5.76 4.88 14.43 14.43 0 0 1-6.64 1.68c-2.24 0-4.45-.56-6.64-1.68a18.3 18.3 0 0 1-5.76-4.88 26.95 26.95 0 0 1-4.16-8 36.59 36.59 0 0 1-1.52-11.04Zm31.12 2.08c0-3.84-.43-7.23-1.28-10.16a24.66 24.66 0 0 0-3.36-7.44 13.96 13.96 0 0 0-4.64-4.56 9.83 9.83 0 0 0-5.28-1.6c-1.81 0-3.47.53-4.96 1.6a13 13 0 0 0-3.68 4.08 22.91 22.91 0 0 0-2.4 5.92 30.3 30.3 0 0 0-.8 7.04c0 2.93.35 5.92 1.04 8.96.7 2.99 1.68 5.7 2.96 8.16a20.8 20.8 0 0 0 4.56 5.92 8.94 8.94 0 0 0 5.92 2.32c1.55 0 3.04-.43 4.48-1.28 1.44-.9 2.7-2.21 3.76-3.92 1.12-1.7 2-3.81 2.64-6.32.7-2.5 1.04-5.41 1.04-8.72Zm27.7 22.72v-.8c.74 0 1.3-.1 1.68-.32.42-.27.72-.59.88-.96a3 3 0 0 0 .31-1.36c.06-.53.09-1.07.09-1.6v-7.84h-21.84l27.03-38.32v34.32h4.88v4h-4.88v7.84c0 1.07.2 2.05.56 2.96.43.85 1.28 1.28 2.56 1.28v.8h-11.28Zm2.96-39.28a1028.8 1028.8 0 0 1-8 11.2 3246.1 3246.1 0 0 0-7.92 11.2h15.92v-22.4Z" fill="#12404F"/>
  </g>
  <defs>
    <linearGradient id="paint0_linear_49_102" x1="86.18" y1="166.45" x2="86.18" y2="0" gradientUnits="userSpaceOnUse">
      <stop offset=".03" stop-color="#C9CACA"/>
      <stop offset=".18" stop-color="#DADADA"/>
      <stop offset=".28" stop-color="#E0E0E0"/>
      <stop offset=".44" stop-color="#CBCBCB"/>
      <stop offset=".5" stop-color="#C2C2C3"/>
      <stop offset=".67" stop-color="#BBBBBC"/>
      <stop offset=".68" stop-color="#BBBBBC"/>
      <stop offset=".77" stop-color="#AEAEAE"/>
      <stop offset=".88" stop-color="#969696"/>
      <stop offset=".93" stop-color="#9A9A9A"/>
      <stop offset=".98" stop-color="#A5A5A5"/>
      <stop offset="1" stop-color="#AAAAAB"/>
    </linearGradient>
    <linearGradient id="paint1_linear_49_102" x1="86.18" y1="162.86" x2="86.18" y2="3.59" gradientUnits="userSpaceOnUse">
      <stop offset=".03" stop-color="#E5E5E6"/>
      <stop offset=".1" stop-color="#D7D7D8"/>
      <stop offset=".12" stop-color="#D1D1D2"/>
      <stop offset=".2" stop-color="#E5E5E5"/>
      <stop offset=".28" stop-color="#FCFCFC"/>
      <stop offset=".44" stop-color="#E7E7E7"/>
      <stop offset=".5" stop-color="#DEDEDF"/>
      <stop offset=".53" stop-color="#DADADB"/>
      <stop offset=".56" stop-color="#CCCCCD"/>
      <stop offset=".59" stop-color="#B6B7B7"/>
      <stop offset=".63" stop-color="#979898"/>
      <stop offset=".66" stop-color="#707171"/>
      <stop offset=".69" stop-color="#494A4A"/>
      <stop offset=".9" stop-color="#D5D6DB"/>
      <stop offset=".97" stop-color="#D3D5D9"/>
      <stop offset=".99" stop-color="#CED0D2"/>
      <stop offset="1" stop-color="#CCCECF"/>
    </linearGradient>
    <linearGradient id="paint2_linear_49_102" x1="86.18" y1="138.22" x2="86.18" y2="28.23" gradientUnits="userSpaceOnUse">
      <stop stop-color="#C5C6C7"/>
      <stop offset=".03" stop-color="#BABABD"/>
      <stop offset=".07" stop-color="#AFAFB3"/>
      <stop offset=".12" stop-color="#ABABB0"/>
      <stop offset=".23" stop-color="#D7D7D8"/>
      <stop offset=".27" stop-color="#989999"/>
      <stop offset=".33" stop-color="#525353"/>
      <stop offset=".35" stop-color="#363737"/>
      <stop offset=".37" stop-color="#4D4E4E"/>
      <stop offset=".41" stop-color="#8B8B8C"/>
      <stop offset=".45" stop-color="#B8B8B9"/>
      <stop offset=".48" stop-color="#D4D4D5"/>
      <stop offset=".5" stop-color="#DEDEDF"/>
      <stop offset=".54" stop-color="#E7E7E7"/>
      <stop offset=".64" stop-color="#FCFCFC"/>
      <stop offset=".68" stop-color="#F6F6F6"/>
      <stop offset=".74" stop-color="#E5E5E6"/>
      <stop offset=".8" stop-color="#C9CACB"/>
      <stop offset=".83" stop-color="#B6B7B8"/>
      <stop offset=".87" stop-color="#BBBCBD"/>
      <stop offset=".91" stop-color="#CACBCC"/>
      <stop offset=".96" stop-color="#E3E3E4"/>
      <stop offset=".97" stop-color="#E5E5E6"/>
    </linearGradient>
    <linearGradient id="paint3_linear_49_102" x1="191.84" y1="103.12" x2="191.84" y2="57.38" gradientUnits="userSpaceOnUse">
      <stop stop-color="#8B8B8F"/>
      <stop offset=".15" stop-color="#C2C2C6"/>
      <stop offset=".2" stop-color="#AAAAAE"/>
      <stop offset=".28" stop-color="#828285"/>
      <stop offset=".35" stop-color="#656567"/>
      <stop offset=".42" stop-color="#535355"/>
      <stop offset=".46" stop-color="#4D4D4F"/>
      <stop offset=".49" stop-color="#767678"/>
      <stop offset=".53" stop-color="#A0A0A1"/>
      <stop offset=".57" stop-color="#C2C2C2"/>
      <stop offset=".6" stop-color="#DADADA"/>
      <stop offset=".63" stop-color="#E8E8E8"/>
      <stop offset=".66" stop-color="#EDEDED"/>
      <stop offset=".72" stop-color="#E8E8E8"/>
      <stop offset=".79" stop-color="#D9D9D9"/>
      <stop offset=".87" stop-color="#C0C0C1"/>
      <stop offset=".96" stop-color="#9E9EA0"/>
      <stop offset="1" stop-color="#8A8A8D"/>
    </linearGradient>
    <clipPath id="clip0_49_102">
      <path fill="#fff" d="M0 0h336v422H0z"/>
    </clipPath>
  </defs>
</svg>
