<svg xmlns="http://www.w3.org/2000/svg" id="svg6" version="1.1" height="36.2" width="34.5">
  <circle r="17.2" cy="17.2" cx="17.2" id="path845" style="fill:#12404f;fill-opacity:1;stroke-width:1.00157;paint-order:stroke fill markers"/>
  <path style="fill:#fff;fill-opacity:1" id="path2" fill="currentColor" d="M15.2 23.4v4.8h11.4a.6.6 0 0 0 .6-.6V13.8a.6.6 0 0 0-.6-.6h-5v2h3.6v1h-3.8v2h3.8v1h-4l-.4 4.7a.3.3 0 0 1-.3.3.3.3 0 0 1-.3-.3V7.6a.4.4 0 0 0-.4-.4h-.6v-.6a.4.4 0 0 0-.4-.4H8.6a.4.4 0 0 0-.4.4v.6h-.6a.4.4 0 0 0-.4.4v20a.6.6 0 0 0 .6.6h4.4v-4.8s0-.2.2-.2H15c.1 0 .2 0 .2.2zm-4.5-3.2v-6h2v6zm4-6v6h2v-6zm-4-2v-3h2v3zm4-3v3h2v-3Zm7.5 13v-1h3v1z" clip-rule="evenodd" fill-rule="evenodd"/>
  <path style="fill:#fff;fill-opacity:1" id="path4" fill="currentColor" d="m21.7 12.2.1-1h3c.2 0 .4.2.4.4v.6z"/>
  <g style="fill:none;fill-opacity:1" transform="translate(4 5.2)" id="g872">
    <path style="fill:none;fill-opacity:1;stroke:#12404f;stroke-width:.1;stroke-linecap:butt;stroke-linejoin:miter;stroke-miterlimit:4;stroke-dasharray:none;stroke-opacity:1" d="M19.4 27.5c-1.8.5-3.5 1-4.6 1.5-1 .6-1.3 1.3-1.6 1.9" id="path847"/>
    <path id="path847-3" d="M7 27.5c1.8.5 3.5 1 4.6 1.6 1 .5 1.3 1.2 1.6 1.8" style="fill:none;fill-opacity:1;stroke:#12404f;stroke-width:.1;stroke-linecap:butt;stroke-linejoin:miter;stroke-miterlimit:4;stroke-dasharray:none;stroke-opacity:1"/>
    <path id="path876" d="m11.7 29 .5.4.5.6.5.8.5-.8.5-.5.4-.3v-.3z" style="fill:#12404f;fill-opacity:1;stroke:none;stroke-width:1px;stroke-linecap:butt;stroke-linejoin:miter;stroke-opacity:1"/>
  </g>
</svg>
